<svg width="19" height="20" viewBox="0 0 19 20" fill="none" xmlns="http://www.w3.org/2000/svg">
<g id="solar:copy-outline">
<path id="Vector" fill-rule="evenodd" clip-rule="evenodd" d="M11.875 1.4895H8.664C7.20892 1.4895 6.05625 1.4895 5.15454 1.61063C4.22671 1.73571 3.47542 1.99854 2.88246 2.59071C2.29029 3.18367 2.02746 3.93496 1.90238 4.86279C1.78125 5.76529 1.78125 6.91717 1.78125 8.37225V13.1666C1.78127 13.8739 2.03374 14.5579 2.49323 15.0956C2.95271 15.6334 3.58903 15.9894 4.28767 16.0997C4.39612 16.7045 4.60592 17.2207 5.0255 17.6411C5.50208 18.1177 6.10217 18.3219 6.81467 18.4185C7.50104 18.5103 8.37425 18.5103 9.45646 18.5103H11.9185C13.0008 18.5103 13.874 18.5103 14.5603 18.4185C15.2728 18.3219 15.8729 18.1177 16.3495 17.6411C16.8261 17.1645 17.0303 16.5644 17.1269 15.8519C17.2188 15.1655 17.2188 14.2923 17.2188 13.2101V9.16471C17.2188 8.0825 17.2188 7.20929 17.1269 6.52292C17.0303 5.81042 16.8261 5.21034 16.3495 4.73375C15.9291 4.31417 15.413 4.10438 14.8081 3.99592C14.6978 3.29728 14.3418 2.66096 13.8041 2.20148C13.2663 1.74199 12.5823 1.48952 11.875 1.4895ZM12.9112 3.00865C13.2136 3.22457 13.4409 3.52963 13.5612 3.88113C13.0783 3.8645 12.5321 3.8645 11.9185 3.8645H9.45646C8.37425 3.8645 7.50104 3.8645 6.81467 3.95713C6.10217 4.05292 5.50208 4.25717 5.0255 4.73375C4.54971 5.21034 4.34388 5.81042 4.24888 6.52292C4.15625 7.20929 4.15625 8.0825 4.15625 9.16471V13.2101C4.15625 13.8237 4.15625 14.3699 4.17287 14.8528C3.82137 14.7325 3.51631 14.5052 3.3004 14.2028C3.08448 13.9004 2.96852 13.5381 2.96875 13.1666V8.41659C2.96875 6.90688 2.97033 5.83496 3.07958 5.02113C3.18646 4.22471 3.38754 3.76554 3.72242 3.43067C4.05729 3.09579 4.51646 2.89471 5.31208 2.78784C6.12671 2.67859 7.19863 2.677 8.70833 2.677H11.875C12.2465 2.67678 12.6089 2.79274 12.9112 3.00865Z" fill="#8A3DFF"/>
<path id="Vector 1" d="M7 8.5H14" stroke="white" stroke-linecap="round"/>
<path id="Vector 2" d="M7 12.5H12" stroke="white" stroke-linecap="round"/>
</g>
</svg>
