<svg width="17" height="18" viewBox="0 0 17 18" fill="none" xmlns="http://www.w3.org/2000/svg">
<path fill-rule="evenodd" clip-rule="evenodd" d="M7.83137 0.776524C8.00872 0.599466 8.24922 0.5 8.5 0.5C8.75078 0.5 8.99128 0.599466 9.16863 0.776524L14.8431 6.44326L16.7345 8.33217C16.9068 8.51029 17.0021 8.74887 17 8.9965C16.9978 9.24413 16.8983 9.48101 16.723 9.65612C16.5477 9.83123 16.3104 9.93056 16.0625 9.93271C15.8145 9.93486 15.5756 9.83967 15.3972 9.66763L15.1201 9.3909V15.6111C15.1201 16.1121 14.9209 16.5925 14.5662 16.9468C14.2114 17.301 13.7303 17.5 13.2287 17.5H10.3915C10.1406 17.5 9.90009 17.4005 9.72274 17.2234C9.54538 17.0463 9.44574 16.806 9.44574 16.5555V13.7222H7.55426V16.5555C7.55426 16.806 7.45462 17.0463 7.27726 17.2234C7.0999 17.4005 6.85935 17.5 6.60853 17.5H3.77132C3.26967 17.5 2.78857 17.301 2.43385 16.9468C2.07913 16.5925 1.87985 16.1121 1.87985 15.6111V9.3909L1.60275 9.66763C1.42438 9.83967 1.18549 9.93486 0.937518 9.93271C0.689549 9.93056 0.452347 9.83123 0.277 9.65612C0.101653 9.48101 0.00219053 9.24413 3.57513e-05 8.9965C-0.00211903 8.74887 0.0932058 8.51029 0.265479 8.33217L2.15695 6.44326L7.83137 0.776524Z" fill="white"/>
</svg>
