{
	"asset":{
		"generator":"Khronos glTF Blender I/O v4.0.44",
		"version":"2.0"
	},
	"scene":0,
	"scenes":[
		{
			"name":"Scene",
			"nodes":[
				0
			]
		}
	],
	"nodes":[
		{
			"mesh":0,
			"name":"Animated Shirt",
			"scale":[
				4.338108062744141,
				4.338108062744141,
				4.338108062744141
			],
			"translation":[
				0.26061388850212097,
				2.1876165866851807,
				-0.8797725439071655
			]
		}
	],
	"materials":[
		{
			"doubleSided":true,
			"name":"Shirt Texture",
			"pbrMetallicRoughness":{
				"baseColorTexture":{
					"index":0
				},
				"metallicFactor":0,
				"roughnessFactor":0.767123281955719
			}
		}
	],
	"meshes":[
		{
			"name":"Shirt",
			"primitives":[
				{
					"attributes":{
						"POSITION":0,
						"NORMAL":1,
						"TEXCOORD_0":2
					},
					"indices":3,
					"material":0
				}
			]
		}
	],
	"textures":[
		{
			"sampler":0,
			"source":0
		}
	],
	"images":[
		{
			"mimeType":"image/jpeg",
			"name":"Design Template 1 aan",
			"uri":"Design%20Template%201%20aan.jpg"
		}
	],
	"accessors":[
		{
			"bufferView":0,
			"componentType":5126,
			"count":628208,
			"max":[
				0.33299267292022705,
				0.34621667861938477,
				0.23039111495018005
			],
			"min":[
				-0.34940198063850403,
				-0.3865998387336731,
				-0.14541122317314148
			],
			"type":"VEC3"
		},
		{
			"bufferView":1,
			"componentType":5126,
			"count":628208,
			"type":"VEC3"
		},
		{
			"bufferView":2,
			"componentType":5126,
			"count":628208,
			"type":"VEC2"
		},
		{
			"bufferView":3,
			"componentType":5125,
			"count":3234636,
			"type":"SCALAR"
		}
	],
	"bufferViews":[
		{
			"buffer":0,
			"byteLength":7538496,
			"byteOffset":0,
			"target":34962
		},
		{
			"buffer":0,
			"byteLength":7538496,
			"byteOffset":7538496,
			"target":34962
		},
		{
			"buffer":0,
			"byteLength":5025664,
			"byteOffset":15076992,
			"target":34962
		},
		{
			"buffer":0,
			"byteLength":12938544,
			"byteOffset":20102656,
			"target":34963
		}
	],
	"samplers":[
		{
			"magFilter":9729,
			"minFilter":9987
		}
	],
	"buffers":[
		{
			"byteLength":33041200,
			"uri":"kaos%20il%20shop.bin"
		}
	]
}
