<svg width="16" height="18" viewBox="0 0 16 18" fill="none" xmlns="http://www.w3.org/2000/svg">
<path d="M9.55556 5.25V3.375C9.55556 2.87772 9.39167 2.40081 9.09994 2.04917C8.80822 1.69754 8.41256 1.5 8 1.5H2.55556C2.143 1.5 1.74733 1.69754 1.45561 2.04917C1.16389 2.40081 1 2.87772 1 3.375V14.625C1 15.1223 1.16389 15.5992 1.45561 15.9508C1.74733 16.3025 2.143 16.5 2.55556 16.5H8C8.41256 16.5 8.80822 16.3025 9.09994 15.9508C9.39167 15.5992 9.55556 15.1223 9.55556 14.625V12.75" stroke="white" stroke-width="2" stroke-linecap="round" stroke-linejoin="round"/>
<path d="M5.66406 8.99976H14.9974M14.9974 8.99976L12.6641 6.18726M14.9974 8.99976L12.6641 11.8123" stroke="white" stroke-width="2" stroke-linecap="round" stroke-linejoin="round"/>
</svg>
