<svg width="17" height="18" viewBox="0 0 17 18" fill="none" xmlns="http://www.w3.org/2000/svg">
<path d="M8.50285 0.5C7.02817 0.499504 5.57874 0.882676 4.29696 1.61187C3.01518 2.34106 1.94516 3.39118 1.19205 4.65905C0.43893 5.92692 0.0286232 7.36891 0.0014441 8.84334C-0.025735 10.3178 0.331148 11.7739 1.03703 13.0687L0.0311951 16.5962C-0.00419704 16.72 -0.00513993 16.8512 0.0284681 16.9756C0.062076 17.0999 0.128962 17.2128 0.221928 17.3019C0.314894 17.3911 0.430419 17.4533 0.55607 17.4817C0.681721 17.5101 0.812741 17.5037 0.935027 17.4632L4.24719 16.3596C5.37607 17.0119 6.63989 17.3958 7.94088 17.4816C9.24187 17.5674 10.5451 17.3527 11.7499 16.8542C12.9546 16.3557 14.0286 15.5867 14.8886 14.6068C15.7486 13.6268 16.3717 12.4622 16.7096 11.2029C17.0475 9.94364 17.0912 8.62352 16.8373 7.34467C16.5833 6.06582 16.0387 4.86252 15.2453 3.82787C14.4519 2.79321 13.4312 1.95492 12.2621 1.37786C11.0929 0.800802 9.80666 0.500436 8.50285 0.5ZM5.66952 7.58333C5.66952 7.39547 5.74415 7.2153 5.87699 7.08247C6.00983 6.94963 6.18999 6.875 6.37785 6.875H10.6278C10.8157 6.875 10.9959 6.94963 11.1287 7.08247C11.2616 7.2153 11.3362 7.39547 11.3362 7.58333C11.3362 7.77119 11.2616 7.95136 11.1287 8.0842C10.9959 8.21704 10.8157 8.29167 10.6278 8.29167H6.37785C6.18999 8.29167 6.00983 8.21704 5.87699 8.0842C5.74415 7.95136 5.66952 7.77119 5.66952 7.58333ZM6.37785 9.70833H9.21118C9.39905 9.70833 9.57921 9.78296 9.71205 9.9158C9.84489 10.0486 9.91952 10.2288 9.91952 10.4167C9.91952 10.6045 9.84489 10.7847 9.71205 10.9175C9.57921 11.0504 9.39905 11.125 9.21118 11.125H6.37785C6.18999 11.125 6.00983 11.0504 5.87699 10.9175C5.74415 10.7847 5.66952 10.6045 5.66952 10.4167C5.66952 10.2288 5.74415 10.0486 5.87699 9.9158C6.00983 9.78296 6.18999 9.70833 6.37785 9.70833Z" fill="white"/>
</svg>
