<svg width="17" height="18" viewBox="0 0 17 18" fill="none" xmlns="http://www.w3.org/2000/svg">
<path d="M16.9547 8.09992C16.876 7.76283 16.7252 7.44678 16.5127 7.17351C16.2972 6.90201 16.0244 6.68145 15.7137 6.52758C15.4693 6.40665 15.2037 6.33448 14.9318 6.3151C14.7932 4.82784 14.134 3.43725 13.0703 2.38849C11.8592 1.17921 10.2176 0.5 8.50603 0.5C6.79448 0.5 5.15289 1.17921 3.94173 2.38849C2.87808 3.43725 2.21886 4.82784 2.08031 6.3151C1.80833 6.33448 1.54273 6.40665 1.29834 6.52758C0.986304 6.67924 0.713032 6.90017 0.499379 7.17351C0.284822 7.44589 0.133798 7.76275 0.0573325 8.10094C-0.0191331 8.43913 -0.0191106 8.79013 0.0573985 9.12832L1.39184 14.5933C1.62152 15.4306 2.12058 16.169 2.81191 16.6944C3.50324 17.2198 4.34836 17.5029 5.21668 17.5H11.7699C12.6412 17.5009 13.4886 17.2151 14.1813 16.6867C14.8741 16.1584 15.3737 15.4167 15.6032 14.5763L16.9292 9.12832C17.0142 8.79175 17.0227 8.43989 16.9547 8.09992ZM5.82015 13.5564C5.82015 13.7254 5.75299 13.8876 5.63344 14.0071C5.51389 14.1267 5.35175 14.1938 5.18268 14.1938C5.01361 14.1938 4.85147 14.1267 4.73192 14.0071C4.61237 13.8876 4.54521 13.7254 4.54521 13.5564V10.2077C4.54521 10.0387 4.61237 9.87652 4.73192 9.75697C4.85147 9.63743 5.01361 9.57027 5.18268 9.57027C5.35175 9.57027 5.51389 9.63743 5.63344 9.75697C5.75299 9.87652 5.82015 10.0387 5.82015 10.2077V13.5564ZM9.14351 13.5564C9.14351 13.6401 9.12702 13.723 9.09498 13.8003C9.06295 13.8776 9.01599 13.9479 8.95679 14.0071C8.8976 14.0663 8.82733 14.1133 8.74998 14.1453C8.67264 14.1773 8.58975 14.1938 8.50603 14.1938C8.42232 14.1938 8.33943 14.1773 8.26208 14.1453C8.18474 14.1133 8.11447 14.0663 8.05527 14.0071C7.99608 13.9479 7.94912 13.8776 7.91709 13.8003C7.88505 13.723 7.86856 13.6401 7.86856 13.5564V10.2077C7.86856 10.0387 7.93572 9.87652 8.05527 9.75697C8.17482 9.63743 8.33697 9.57027 8.50603 9.57027C8.6751 9.57027 8.83724 9.63743 8.95679 9.75697C9.07634 9.87652 9.14351 10.0387 9.14351 10.2077V13.5564ZM12.4669 13.5564C12.4669 13.7254 12.3997 13.8876 12.2802 14.0071C12.1606 14.1267 11.9985 14.1938 11.8294 14.1938C11.6603 14.1938 11.4982 14.1267 11.3786 14.0071C11.2591 13.8876 11.1919 13.7254 11.1919 13.5564V10.2077C11.1919 10.0387 11.2591 9.87652 11.3786 9.75697C11.4982 9.63743 11.6603 9.57027 11.8294 9.57027C11.9985 9.57027 12.1606 9.63743 12.2802 9.75697C12.3997 9.87652 12.4669 10.0387 12.4669 10.2077V13.5564ZM3.36376 6.2981C3.50354 5.1572 4.0247 4.09697 4.84269 3.2894C5.81589 2.32094 7.13303 1.77725 8.50603 1.77725C9.87904 1.77725 11.1962 2.32094 12.1694 3.2894C12.9874 4.09697 13.5085 5.1572 13.6483 6.2981H3.36376Z" fill="white"/>
</svg>
