<svg width="21" height="21" viewBox="0 0 21 21" fill="none" xmlns="http://www.w3.org/2000/svg">
<path id="Vector" d="M20.095 21.0026L12.0683 12.9758C11.4274 13.5219 10.6904 13.9445 9.85717 14.2435C9.02399 14.5426 8.18653 14.6922 7.34481 14.6922C5.29219 14.6922 3.5549 13.9816 2.13294 12.5605C0.710981 11.1386 0 9.4017 0 7.34994C0 5.29817 0.710126 3.56046 2.13038 2.13679C3.55149 0.712263 5.28792 0 7.33968 0C9.3923 0 11.1304 0.710981 12.5541 2.13294C13.9778 3.5549 14.6896 5.29262 14.6896 7.34609C14.6896 8.23653 14.532 9.09833 14.2166 9.93151C13.9004 10.7647 13.486 11.4774 12.9733 12.0696L21 20.095L20.095 21.0026ZM7.34481 13.4091C9.04535 13.4091 10.4814 12.8237 11.653 11.653C12.8237 10.4823 13.4091 9.04621 13.4091 7.34481C13.4091 5.64426 12.8237 4.20863 11.653 3.0379C10.4823 1.86718 9.04663 1.28182 7.34609 1.28182C5.64555 1.28182 4.20949 1.86718 3.03791 3.0379C1.86718 4.20863 1.28182 5.64426 1.28182 7.34481C1.28182 9.04535 1.86718 10.481 3.03791 11.6517C4.20863 12.8224 5.64427 13.4091 7.34481 13.4091Z" fill="black"/>
</svg>
