<svg width="16" height="18" viewBox="0 0 16 18" fill="none" xmlns="http://www.w3.org/2000/svg">
<path fill-rule="evenodd" clip-rule="evenodd" d="M9.49811 0.6292C9.18654 0.5 8.79076 0.5 8.00005 0.5C7.20933 0.5 6.81439 0.5 6.50198 0.6292C6.08722 0.801079 5.75706 1.1322 5.58411 1.54975C5.50496 1.7393 5.47464 1.96115 5.46201 2.2833C5.4564 2.51671 5.39189 2.74482 5.2746 2.94606C5.15731 3.1473 4.99111 3.31502 4.79171 3.43335C4.58856 3.54734 4.36018 3.60772 4.12775 3.60891C3.89532 3.6101 3.66636 3.55205 3.46207 3.44015C3.17744 3.28885 2.97113 3.20555 2.76735 3.17835C2.32151 3.11926 1.87059 3.24023 1.51265 3.51495C1.24486 3.72065 1.04697 4.06405 0.652037 4.75C0.256259 5.43595 0.0592114 5.7785 0.0145811 6.11425C-0.0443647 6.56135 0.0768952 7.01355 0.351414 7.3714C0.476042 7.5346 0.652037 7.67145 0.92403 7.84315C1.3257 8.0956 1.58338 8.5257 1.58338 9C1.58338 9.4743 1.3257 9.9044 0.924872 10.156C0.652037 10.3286 0.476042 10.4654 0.350572 10.6286C0.215066 10.8054 0.115605 11.0075 0.0579351 11.2232C0.000265164 11.439 -0.0144701 11.6642 0.0145811 11.8858C0.0592114 12.2207 0.256259 12.5641 0.652037 13.25C1.04782 13.936 1.24486 14.2785 1.51265 14.485C1.86969 14.7596 2.32104 14.8803 2.76735 14.8217C2.97113 14.7945 3.17744 14.7112 3.46207 14.5599C3.66646 14.4478 3.89558 14.3897 4.12818 14.3909C4.36077 14.392 4.5893 14.4525 4.79256 14.5667C5.20181 14.8047 5.44433 15.2424 5.46201 15.7167C5.47464 16.0397 5.50496 16.2607 5.58411 16.4502C5.7559 16.8668 6.08599 17.1982 6.50198 17.3708C6.81355 17.5 7.20933 17.5 8.00005 17.5C8.79076 17.5 9.18654 17.5 9.49811 17.3708C9.91288 17.1989 10.243 16.8678 10.416 16.4502C10.4951 16.2607 10.5255 16.0397 10.5381 15.7167C10.5549 15.2424 10.7983 14.8038 11.2084 14.5667C11.4115 14.4527 11.6399 14.3923 11.8723 14.3911C12.1048 14.3899 12.3337 14.4479 12.538 14.5599C12.8227 14.7112 13.029 14.7945 13.2327 14.8217C13.679 14.8812 14.1304 14.7596 14.4874 14.485C14.7552 14.2793 14.9531 13.936 15.3481 13.25C15.7438 12.5641 15.9409 12.2215 15.9855 11.8858C16.0144 11.6641 15.9996 11.4389 15.9418 11.2231C15.8839 11.0074 15.7843 10.8053 15.6487 10.6286C15.5241 10.4654 15.3481 10.3286 15.0761 10.1568C14.6744 9.9044 14.4167 9.4743 14.4167 9C14.4167 8.5257 14.6744 8.0956 15.0752 7.844C15.3481 7.67145 15.524 7.5346 15.6495 7.3714C15.785 7.19465 15.8845 6.99255 15.9422 6.77677C15.9998 6.56099 16.0146 6.33581 15.9855 6.11425C15.9409 5.77935 15.7438 5.43595 15.3481 4.75C14.9523 4.06405 14.7552 3.7215 14.4874 3.51495C14.1295 3.24023 13.6786 3.11926 13.2327 3.17835C13.029 3.20555 12.8227 3.28885 12.538 3.44015C12.3336 3.5522 12.1045 3.61033 11.8719 3.60915C11.6393 3.60796 11.4108 3.54749 11.2075 3.43335C11.0083 3.31491 10.8423 3.14715 10.7251 2.94592C10.608 2.74469 10.5436 2.51663 10.5381 2.2833C10.5255 1.9603 10.4951 1.7393 10.416 1.54975C10.3304 1.34298 10.2053 1.15525 10.0478 0.997299C9.89029 0.839348 9.70351 0.714266 9.49811 0.6292ZM8.00005 11.55C9.40632 11.55 10.5457 10.4085 10.5457 9C10.5457 7.59155 9.40548 6.45 8.00005 6.45C6.59377 6.45 5.45443 7.59155 5.45443 9C5.45443 10.4085 6.59461 11.55 8.00005 11.55Z" fill="white"/>
</svg>
