<svg width="16" height="18" viewBox="0 0 16 18" fill="none" xmlns="http://www.w3.org/2000/svg">
<path d="M7.75 0.5C6.75544 0.5 5.80161 0.907573 5.09835 1.63306C4.39509 2.35854 4 3.34251 4 4.3685C4 5.39449 4.39509 6.37846 5.09835 7.10394C5.80161 7.82943 6.75544 8.237 7.75 8.237C8.74456 8.237 9.69839 7.82943 10.4017 7.10394C11.1049 6.37846 11.5 5.39449 11.5 4.3685C11.5 3.34251 11.1049 2.35854 10.4017 1.63306C9.69839 0.907573 8.74456 0.5 7.75 0.5ZM3.75 10.3002C2.75544 10.3002 1.80161 10.7078 1.09835 11.4333C0.395088 12.1587 0 13.1427 0 14.1687V15.3942C0 16.1721 0.546 16.8344 1.29 16.9592C5.568 17.6803 9.932 17.6803 14.21 16.9592C14.5701 16.8987 14.8976 16.7081 15.1339 16.4214C15.3702 16.1347 15.5 15.7706 15.5 15.3942V14.1687C15.5 13.1427 15.1049 12.1587 14.4017 11.4333C13.6984 10.7078 12.7446 10.3002 11.75 10.3002H11.41C11.225 10.3002 11.041 10.3312 10.866 10.3889L10 10.6809C8.53796 11.1732 6.96204 11.1732 5.5 10.6809L4.634 10.3889C4.45865 10.3301 4.2754 10.3001 4.091 10.3002H3.75Z" fill="white"/>
</svg>
