<svg width="26" height="26" viewBox="0 0 26 26" fill="none" xmlns="http://www.w3.org/2000/svg">
<g id="Group 6">
<path id="Vector" d="M22.0002 24.9999C22.4776 24.9999 22.9354 24.8103 23.273 24.4727C23.6106 24.1351 23.8002 23.6773 23.8002 23.1999C23.8002 22.7225 23.6106 22.2647 23.273 21.9271C22.9354 21.5895 22.4776 21.3999 22.0002 21.3999C21.5228 21.3999 21.065 21.5895 20.7274 21.9271C20.3898 22.2647 20.2002 22.7225 20.2002 23.1999C20.2002 23.6773 20.3898 24.1351 20.7274 24.4727C21.065 24.8103 21.5228 24.9999 22.0002 24.9999ZM10.0002 24.9999C10.4776 24.9999 10.9354 24.8103 11.273 24.4727C11.6106 24.1351 11.8002 23.6773 11.8002 23.1999C11.8002 22.7225 11.6106 22.2647 11.273 21.9271C10.9354 21.5895 10.4776 21.3999 10.0002 21.3999C9.52281 21.3999 9.06497 21.5895 8.7274 21.9271C8.38984 22.2647 8.2002 22.7225 8.2002 23.1999C8.2002 23.6773 8.38984 24.1351 8.7274 24.4727C9.06497 24.8103 9.52281 24.9999 10.0002 24.9999Z" fill="#64748B" stroke="#64748B" stroke-width="1.5" stroke-linecap="round" stroke-linejoin="round"/>
<path id="Vector_2" d="M4.6 3.4H25L22.6 16.6M4.6 3.4L7 16.6H22.6M4.6 3.4C4.3996 2.5996 3.4 1 1 1M22.6 16.6H4.876C2.7352 16.6 1.6 17.5372 1.6 19C1.6 20.4628 2.7352 21.4 4.876 21.4H22" stroke="#64748B" stroke-width="1.5" stroke-linecap="round" stroke-linejoin="round"/>
</g>
</svg>
