<svg width="21" height="21" viewBox="0 0 21 21" fill="none" xmlns="http://www.w3.org/2000/svg">
<g id="mdi:cash-on-delivery">
<path id="Vector" d="M16.1875 14.7C15.575 14.7 15.1375 14.175 15.1375 13.65C15.1375 13.0375 15.6625 12.6 16.1875 12.6C16.7125 12.6 17.2375 13.125 17.2375 13.65C17.325 14.175 16.8 14.7 16.1875 14.7ZM16.1875 10.5C14.525 10.5 13.125 11.9 13.125 13.5625C13.125 15.8375 16.1875 19.25 16.1875 19.25C16.1875 19.25 19.25 15.8375 19.25 13.5625C19.25 11.9 17.85 10.5 16.1875 10.5ZM13.0375 9.8875C12.775 8.75 11.725 7.875 10.5 7.875C9.0125 7.875 7.875 9.0125 7.875 10.5C7.875 11.9875 9.0125 13.125 10.5 13.125C10.85 13.125 11.1125 13.0375 11.375 12.95C11.55 11.725 12.1625 10.675 13.0375 9.8875ZM11.375 14H6.125C6.125 13.5359 5.94063 13.0908 5.61244 12.7626C5.28425 12.4344 4.83913 12.25 4.375 12.25V8.75C4.83913 8.75 5.28425 8.56563 5.61244 8.23744C5.94063 7.90925 6.125 7.46413 6.125 7H14.875C14.875 7.46413 15.0594 7.90925 15.3876 8.23744C15.7158 8.56563 16.1609 8.75 16.625 8.75C16.625 8.75 17.5 8.75 18.375 9.275V5.25H2.625V15.75H11.8125C11.6375 15.1375 11.4625 14.6125 11.375 14Z" fill="#2A313A"/>
</g>
</svg>
