<svg width="21" height="22" viewBox="0 0 21 22" fill="none" xmlns="http://www.w3.org/2000/svg">
<path id="Vector" d="M20.095 21.5013L12.0683 13.4746C11.4274 14.0207 10.6904 14.4432 9.85717 14.7423C9.02399 15.0414 8.18654 15.191 7.34481 15.191C5.29219 15.191 3.5549 14.4804 2.13294 13.0593C0.710981 11.6373 0 9.90048 0 7.84872C0 5.79695 0.710126 4.05924 2.13038 2.63557C3.55149 1.21104 5.28792 0.498779 7.33968 0.498779C9.3923 0.498779 11.1304 1.20976 12.5541 2.63172C13.9778 4.05368 14.6896 5.7914 14.6896 7.84487C14.6896 8.7353 14.532 9.59711 14.2166 10.4303C13.9004 11.2635 13.486 11.9762 12.9733 12.5684L21 20.5938L20.095 21.5013ZM7.34481 13.9079C9.04535 13.9079 10.4814 13.3225 11.653 12.1518C12.8237 10.981 13.4091 9.54498 13.4091 7.84359C13.4091 6.14304 12.8237 4.70741 11.653 3.53668C10.4823 2.36596 9.04663 1.7806 7.34609 1.7806C5.64555 1.7806 4.20949 2.36596 3.03791 3.53668C1.86718 4.70741 1.28182 6.14304 1.28182 7.84359C1.28182 9.54413 1.86718 10.9798 3.03791 12.1505C4.20863 13.3212 5.64427 13.9079 7.34481 13.9079Z" fill="#8390A2"/>
</svg>
