<svg width="20" height="14" viewBox="0 0 20 14" fill="none" xmlns="http://www.w3.org/2000/svg">
<g id="Group 1011">
<g id="Vector">
<path fill-rule="evenodd" clip-rule="evenodd" d="M3.925 11.0834C4.06628 10.8919 4.15 10.6538 4.15 10.3958C4.15 10.1378 4.06628 9.89975 3.925 9.70822C4.13025 9.42997 4.45699 9.25 4.825 9.25C5.44632 9.25 5.95 9.76301 5.95 10.3958C5.95 11.0287 5.44632 11.5417 4.825 11.5417C4.45699 11.5417 4.13025 11.3617 3.925 11.0834ZM3.925 11.0834C3.71975 11.3617 3.39301 11.5417 3.025 11.5417C2.40368 11.5417 1.9 11.0287 1.9 10.3958C1.9 9.76301 2.40368 9.25 3.025 9.25C3.39301 9.25 3.71975 9.42997 3.925 9.70822C3.78372 9.89975 3.7 10.1378 3.7 10.3958C3.7 10.6538 3.78372 10.8919 3.925 11.0834Z" fill="#2A313A"/>
<path d="M14.7934 7.22233L13.4488 11.0833H12.2932L10.9486 7.22233H11.9314L12.871 10.1373L13.816 7.22233H14.7934Z" fill="#2A313A"/>
<path d="M16.6211 10.4013H15.2063L14.9795 11.0833H14.0129L15.3845 7.22233H16.4537L17.8253 11.0833H16.8479L16.6211 10.4013ZM16.3835 9.67533L15.9137 8.26183L15.4493 9.67533H16.3835Z" fill="#2A313A"/>
<path d="M1 2.83333H19V5.125H1V2.83333Z" fill="#2A313A"/>
<path d="M19.5 2.33333V1.91667C19.5 1.14295 18.8818 0.5 18.1 0.5H1.9C1.11819 0.5 0.5 1.14295 0.5 1.91667V2.33333V2.375V2.83333V4.66667V5.125V5.625V11.0833C0.5 11.857 1.11819 12.5 1.9 12.5H18.1C18.8818 12.5 19.5 11.857 19.5 11.0833V5.625V5.125V4.66667V2.83333V2.375V2.33333Z" stroke="#2A313A"/>
</g>
</g>
</svg>
